<svg xmlns="http://www.w3.org/2000/svg" width="239" height="1024" style="background:#222;">
  <image href="reimu_sprites.png" x="0" y="0" width="239" height="1024" />
  <line x1="0" y1="0" x2="0" y2="1024" stroke="rgba(255,0,0,0.5)" stroke-width="0.5" />
  <text x="2" y="10" fill="yellow" font-size="8">0</text>
  <line x1="24" y1="0" x2="24" y2="1024" stroke="rgba(255,0,0,0.5)" stroke-width="0.5" />
  <text x="26" y="10" fill="yellow" font-size="8">24</text>
  <line x1="48" y1="0" x2="48" y2="1024" stroke="rgba(255,0,0,0.5)" stroke-width="0.5" />
  <text x="50" y="10" fill="yellow" font-size="8">48</text>
  <line x1="72" y1="0" x2="72" y2="1024" stroke="rgba(255,0,0,0.5)" stroke-width="0.5" />
  <text x="74" y="10" fill="yellow" font-size="8">72</text>
  <line x1="96" y1="0" x2="96" y2="1024" stroke="rgba(255,0,0,0.5)" stroke-width="0.5" />
  <text x="98" y="10" fill="yellow" font-size="8">96</text>
  <line x1="120" y1="0" x2="120" y2="1024" stroke="rgba(255,0,0,0.5)" stroke-width="0.5" />
  <text x="122" y="10" fill="yellow" font-size="8">120</text>
  <line x1="144" y1="0" x2="144" y2="1024" stroke="rgba(255,0,0,0.5)" stroke-width="0.5" />
  <text x="146" y="10" fill="yellow" font-size="8">144</text>
  <line x1="168" y1="0" x2="168" y2="1024" stroke="rgba(255,0,0,0.5)" stroke-width="0.5" />
  <text x="170" y="10" fill="yellow" font-size="8">168</text>
  <line x1="192" y1="0" x2="192" y2="1024" stroke="rgba(255,0,0,0.5)" stroke-width="0.5" />
  <text x="194" y="10" fill="yellow" font-size="8">192</text>
  <line x1="216" y1="0" x2="216" y2="1024" stroke="rgba(255,0,0,0.5)" stroke-width="0.5" />
  <text x="218" y="10" fill="yellow" font-size="8">216</text>
  <line x1="0" y1="0" x2="239" y2="0" stroke="rgba(255,0,0,0.5)" stroke-width="0.5" />
  <text x="2" y="-2" fill="yellow" font-size="8">0</text>
  <line x1="0" y1="32" x2="239" y2="32" stroke="rgba(255,0,0,0.5)" stroke-width="0.5" />
  <text x="2" y="30" fill="yellow" font-size="8">32</text>
  <line x1="0" y1="64" x2="239" y2="64" stroke="rgba(255,0,0,0.5)" stroke-width="0.5" />
  <text x="2" y="62" fill="yellow" font-size="8">64</text>
  <line x1="0" y1="96" x2="239" y2="96" stroke="rgba(255,0,0,0.5)" stroke-width="0.5" />
  <text x="2" y="94" fill="yellow" font-size="8">96</text>
  <line x1="0" y1="128" x2="239" y2="128" stroke="rgba(255,0,0,0.5)" stroke-width="0.5" />
  <text x="2" y="126" fill="yellow" font-size="8">128</text>
  <line x1="0" y1="160" x2="239" y2="160" stroke="rgba(255,0,0,0.5)" stroke-width="0.5" />
  <text x="2" y="158" fill="yellow" font-size="8">160</text>
  <line x1="0" y1="192" x2="239" y2="192" stroke="rgba(255,0,0,0.5)" stroke-width="0.5" />
  <text x="2" y="190" fill="yellow" font-size="8">192</text>
  <line x1="0" y1="224" x2="239" y2="224" stroke="rgba(255,0,0,0.5)" stroke-width="0.5" />
  <text x="2" y="222" fill="yellow" font-size="8">224</text>
  <line x1="0" y1="256" x2="239" y2="256" stroke="rgba(255,0,0,0.5)" stroke-width="0.5" />
  <text x="2" y="254" fill="yellow" font-size="8">256</text>
  <line x1="0" y1="288" x2="239" y2="288" stroke="rgba(255,0,0,0.5)" stroke-width="0.5" />
  <text x="2" y="286" fill="yellow" font-size="8">288</text>
  <line x1="0" y1="320" x2="239" y2="320" stroke="rgba(255,0,0,0.5)" stroke-width="0.5" />
  <text x="2" y="318" fill="yellow" font-size="8">320</text>
  <line x1="0" y1="352" x2="239" y2="352" stroke="rgba(255,0,0,0.5)" stroke-width="0.5" />
  <text x="2" y="350" fill="yellow" font-size="8">352</text>
  <line x1="0" y1="384" x2="239" y2="384" stroke="rgba(255,0,0,0.5)" stroke-width="0.5" />
  <text x="2" y="382" fill="yellow" font-size="8">384</text>
  <line x1="0" y1="416" x2="239" y2="416" stroke="rgba(255,0,0,0.5)" stroke-width="0.5" />
  <text x="2" y="414" fill="yellow" font-size="8">416</text>
  <line x1="0" y1="448" x2="239" y2="448" stroke="rgba(255,0,0,0.5)" stroke-width="0.5" />
  <text x="2" y="446" fill="yellow" font-size="8">448</text>
  <line x1="0" y1="480" x2="239" y2="480" stroke="rgba(255,0,0,0.5)" stroke-width="0.5" />
  <text x="2" y="478" fill="yellow" font-size="8">480</text>
  <line x1="0" y1="512" x2="239" y2="512" stroke="rgba(255,0,0,0.5)" stroke-width="0.5" />
  <text x="2" y="510" fill="yellow" font-size="8">512</text>
  <line x1="0" y1="544" x2="239" y2="544" stroke="rgba(255,0,0,0.5)" stroke-width="0.5" />
  <text x="2" y="542" fill="yellow" font-size="8">544</text>
  <line x1="0" y1="576" x2="239" y2="576" stroke="rgba(255,0,0,0.5)" stroke-width="0.5" />
  <text x="2" y="574" fill="yellow" font-size="8">576</text>
  <line x1="0" y1="608" x2="239" y2="608" stroke="rgba(255,0,0,0.5)" stroke-width="0.5" />
  <text x="2" y="606" fill="yellow" font-size="8">608</text>
  <line x1="0" y1="640" x2="239" y2="640" stroke="rgba(255,0,0,0.5)" stroke-width="0.5" />
  <text x="2" y="638" fill="yellow" font-size="8">640</text>
  <line x1="0" y1="672" x2="239" y2="672" stroke="rgba(255,0,0,0.5)" stroke-width="0.5" />
  <text x="2" y="670" fill="yellow" font-size="8">672</text>
  <line x1="0" y1="704" x2="239" y2="704" stroke="rgba(255,0,0,0.5)" stroke-width="0.5" />
  <text x="2" y="702" fill="yellow" font-size="8">704</text>
  <line x1="0" y1="736" x2="239" y2="736" stroke="rgba(255,0,0,0.5)" stroke-width="0.5" />
  <text x="2" y="734" fill="yellow" font-size="8">736</text>
  <line x1="0" y1="768" x2="239" y2="768" stroke="rgba(255,0,0,0.5)" stroke-width="0.5" />
  <text x="2" y="766" fill="yellow" font-size="8">768</text>
  <line x1="0" y1="800" x2="239" y2="800" stroke="rgba(255,0,0,0.5)" stroke-width="0.5" />
  <text x="2" y="798" fill="yellow" font-size="8">800</text>
  <line x1="0" y1="832" x2="239" y2="832" stroke="rgba(255,0,0,0.5)" stroke-width="0.5" />
  <text x="2" y="830" fill="yellow" font-size="8">832</text>
  <line x1="0" y1="864" x2="239" y2="864" stroke="rgba(255,0,0,0.5)" stroke-width="0.5" />
  <text x="2" y="862" fill="yellow" font-size="8">864</text>
  <line x1="0" y1="896" x2="239" y2="896" stroke="rgba(255,0,0,0.5)" stroke-width="0.5" />
  <text x="2" y="894" fill="yellow" font-size="8">896</text>
  <line x1="0" y1="928" x2="239" y2="928" stroke="rgba(255,0,0,0.5)" stroke-width="0.5" />
  <text x="2" y="926" fill="yellow" font-size="8">928</text>
  <line x1="0" y1="960" x2="239" y2="960" stroke="rgba(255,0,0,0.5)" stroke-width="0.5" />
  <text x="2" y="958" fill="yellow" font-size="8">960</text>
  <line x1="0" y1="992" x2="239" y2="992" stroke="rgba(255,0,0,0.5)" stroke-width="0.5" />
  <text x="2" y="990" fill="yellow" font-size="8">992</text>
</svg>